<?xml version="1.0" encoding="utf-8"?>
<!-- Generator: Adobe Illustrator 22.0.0, SVG Export Plug-In . SVG Version: 6.00 Build 0)  -->
<svg version="1.1" id="Слой_1" xmlns="http://www.w3.org/2000/svg" xmlns:xlink="http://www.w3.org/1999/xlink" x="0px" y="0px"
	 viewBox="0 0 16 16" style="enable-background:new 0 0 16 16;" xml:space="preserve">
<style type="text/css">
	.st0{fill:#FFFFFF;}
</style>
<g>
	<g>
		<path class="st0" d="M0.1,16.1c0-5.3,0-10.7,0-16c5.3,0,10.7,0,16,0c0,5.3,0,10.7,0,16C10.8,16.1,5.4,16.1,0.1,16.1z M1.1,12.8
			C0.5,10.2,1.1,8,2.8,6C5.3,3.1,9.9,3.5,12,6.8c0.3,0.5,0.6,1,0.9,1.5c0.6-0.2,1.2-0.4,1.8-0.7c-0.7-1.3-1.5-2.3-2.6-3.2
			c-3.2-2.5-7.7-2-10.2,1.2C0.2,7.7,0,10.6,1.1,12.8z M15.3,8.1c-0.1,0-0.2,0-0.2,0c-2.8,1-5.6,1.9-8.3,2.9
			c-0.2,0.1-0.4,0.2-0.6,0.3c-0.4,0.3-0.5,0.7-0.4,1.1c0.1,0.4,0.5,0.8,0.9,0.7c0.4,0,0.7-0.1,1-0.3c2.4-1.5,4.7-3,7.1-4.5
			C15,8.3,15.1,8.2,15.3,8.1z"/>
		<path d="M1.1,12.8c-1.1-2.3-1-5.1,0.8-7.3c2.5-3.2,7-3.7,10.2-1.2c1.1,0.9,1.9,1.9,2.6,3.2c-0.6,0.2-1.2,0.4-1.8,0.7
			c-0.3-0.5-0.6-1-0.9-1.5C9.9,3.5,5.3,3.1,2.8,6C1.1,8,0.5,10.2,1.1,12.8z"/>
		<path d="M15.3,8.1c-0.2,0.1-0.3,0.2-0.4,0.3c-2.4,1.5-4.7,3-7.1,4.5c-0.3,0.2-0.7,0.3-1,0.3c-0.5,0-0.8-0.3-0.9-0.7
			c-0.1-0.4,0-0.9,0.4-1.1c0.2-0.1,0.4-0.2,0.6-0.3c2.8-1,5.5-1.9,8.3-2.9C15.1,8.1,15.2,8.1,15.3,8.1z"/>
	</g>
</g>
</svg>
