<?xml version="1.0" encoding="utf-8"?>
<!-- Generator: Adobe Illustrator 22.0.0, SVG Export Plug-In . SVG Version: 6.00 Build 0)  -->
<svg version="1.1" id="Слой_1" xmlns="http://www.w3.org/2000/svg" xmlns:xlink="http://www.w3.org/1999/xlink" x="0px" y="0px"
	 viewBox="0 0 120 76" style="enable-background:new 0 0 120 76;" xml:space="preserve">
<style type="text/css">
	.st0{fill:#A32520;}
</style>
<path d="M0.4,76v-9h7.3c0.7,0,1.2,0.1,1.5,0.4c0.3,0.3,0.4,0.7,0.4,1.3v1c0,0.5-0.1,0.8-0.3,1.1C9,71,8.6,71.2,8.1,71.2
	c0.5,0,0.9,0.2,1.2,0.5C9.6,72,9.7,72.4,9.7,73v1.1c0,0.6-0.2,1-0.6,1.3c-0.4,0.3-1,0.4-1.9,0.4L0.4,76L0.4,76z M8.1,69.8V69
	c0-0.3,0-0.5-0.2-0.6c-0.1-0.1-0.4-0.1-0.7-0.1H2v2.5h5.2c0.3,0,0.6,0,0.7-0.2C8,70.3,8.1,70.1,8.1,69.8z M8.1,73.7v-0.7
	c0-0.4,0-0.7-0.2-0.8c-0.1-0.1-0.4-0.2-0.8-0.2H2v2.9h5.2c0.4,0,0.6-0.1,0.8-0.2C8.1,74.3,8.1,74,8.1,73.7z"/>
<path d="M14.2,76v-9h7.3c0.7,0,1.2,0.1,1.5,0.4c0.3,0.3,0.4,0.7,0.4,1.3v2c0,0.6-0.1,1-0.4,1.3c-0.3,0.3-0.8,0.4-1.5,0.4h-1.3
	l4.1,3.5H22l-3.7-3.5h-2.6v3.5L14.2,76L14.2,76z M20.9,68.1h-5.2v3.2h5.2c0.4,0,0.6,0,0.8-0.2c0.1-0.1,0.2-0.4,0.2-0.7v-1.3
	c0-0.3,0-0.6-0.2-0.7C21.4,68.2,21.2,68.1,20.9,68.1z"/>
<path d="M38.8,76l4.9-9h1.6l5,9h-1.7l-1.1-2.2h-6.1L40.2,76H38.8z M42,72.6h4.9L44.4,68L42,72.6z"/>
<path d="M58.5,67c0.8,0,1.5,0,2.1,0.1c0.5,0.1,1,0.3,1.4,0.5c0.6,0.4,1,0.9,1.4,1.6c0.3,0.7,0.5,1.4,0.5,2.2c0,0.8-0.1,1.6-0.5,2.2
	c-0.3,0.7-0.8,1.2-1.4,1.6c-0.4,0.2-0.8,0.4-1.4,0.5c-0.5,0.1-1.2,0.1-2.1,0.1h-5v-9L58.5,67L58.5,67z M58.3,68.2H55v6.5h3.2
	c1.5,0,2.5-0.2,3.1-0.8c0.6-0.5,0.9-1.4,0.9-2.5c0-1.1-0.3-2-0.9-2.4C60.7,68.4,59.7,68.2,58.3,68.2z"/>
<path d="M68,76v-9h7.3c0.7,0,1.2,0.1,1.5,0.4c0.3,0.3,0.4,0.7,0.4,1.3v1c0,0.5-0.1,0.8-0.3,1.1c-0.2,0.2-0.6,0.4-1.1,0.4
	c0.5,0,0.9,0.2,1.2,0.5c0.2,0.3,0.4,0.7,0.4,1.2v1.1c0,0.6-0.2,1-0.6,1.3c-0.4,0.3-1,0.4-1.9,0.4L68,76L68,76z M75.6,69.8V69
	c0-0.3,0-0.5-0.2-0.6c-0.1-0.1-0.4-0.1-0.7-0.1h-5.2v2.5h5.2c0.3,0,0.6,0,0.7-0.2C75.6,70.3,75.6,70.1,75.6,69.8z M75.7,73.7v-0.7
	c0-0.4,0-0.7-0.2-0.8c-0.1-0.1-0.4-0.2-0.8-0.2h-5.2v2.9h5.2c0.4,0,0.6-0.1,0.8-0.2C75.6,74.3,75.7,74,75.7,73.7z"/>
<path d="M79.9,76l4.9-9h1.6l5,9h-1.7l-1.1-2.2h-6.1L81.4,76H79.9z M83.2,72.6h4.9L85.6,68L83.2,72.6z"/>
<path d="M94.7,76v-9h0.9l6.8,6c0.1,0.1,0.3,0.3,0.5,0.5c0.2,0.2,0.3,0.4,0.5,0.6c0-0.3-0.1-0.6-0.1-0.9c0-0.3,0-0.7,0-1.3v-4.9h1.4
	v9h-0.8l-6.9-6.3c0,0-0.1-0.1-0.1-0.1c-0.3-0.3-0.6-0.6-0.7-0.9c0,0.3,0,0.6,0.1,0.9c0,0.3,0,0.7,0,1.1v5.3L94.7,76L94.7,76z"/>
<path d="M114.7,67c0.8,0,1.5,0,2.1,0.1c0.5,0.1,1,0.3,1.4,0.5c0.6,0.4,1,0.9,1.4,1.6c0.3,0.7,0.5,1.4,0.5,2.2c0,0.8-0.1,1.6-0.5,2.2
	c-0.3,0.7-0.8,1.2-1.4,1.6c-0.4,0.2-0.8,0.4-1.4,0.5c-0.5,0.1-1.2,0.1-2.1,0.1h-5v-9L114.7,67L114.7,67z M114.5,68.2h-3.2v6.5h3.2
	c1.5,0,2.5-0.2,3.1-0.8c0.6-0.5,0.9-1.4,0.9-2.5c0-1.1-0.3-2-0.9-2.4C116.9,68.4,115.9,68.2,114.5,68.2z"/>
<path class="st0" d="M91.3,9.3l-6.2,7.3c-4.3-4.5-9.7-7.2-15.4-7.2c-5,0-9.1,1.6-12.5,4.9c-3.3,3.3-5.1,7.3-5.1,12
	c0,4.8,1.8,9,5.2,12.4c3.5,3.4,7.8,5.1,12.9,5.1c3.3,0,6.1-0.7,8.4-2.1c2.3-1.4,4.1-3.6,5.5-6.5H69.7l7.6-9h17.9l0,2.1
	c0,4.4-1.1,8.5-3.4,12.5c-2.3,4-5.2,6.9-8.9,9c-3.6,2.1-7.9,3.1-12.8,3.1c-5.2,0-9.9-1.1-14-3.4c-4.1-2.2-7.4-5.5-9.8-9.7
	c-2.4-4.2-3.6-8.7-3.6-13.6c0-6.6,2.2-12.5,6.6-17.4C54.5,2.9,61.3,0,69.7,0c4.4,0,8.5,0.8,12.4,2.4C85.3,3.8,88.3,5.9,91.3,9.3z"/>
<path class="st0" d="M0,0.3h11.9c7.7,0,13.4,1,17.1,2.8c3.7,1.9,6.8,5,9.2,9.2c2.4,4.2,3.6,9.2,3.6,14.9c0,4.1-0.7,7.8-2,11.2
	c-1.4,3.4-3.2,6.2-5.6,8.4c-2.4,2.2-5,3.8-7.8,4.6c-2.7,0.9-7.6,1.3-14.4,1.3H0V45l10-12L0,32.2V0.3z M10,33v10.1h4.7
	c4.6,0,7.9-0.5,10-1.6c2.1-1,3.8-2.8,5.1-5.3s2-5.5,2-9.1c0-5.6-1.6-9.9-4.7-13c-2.8-2.7-7.4-4.2-13.6-4.2h-3.4v10.3L0,32.2L10,33z"
	/>
<path d="M95.4,51.5v-4.4h6.5v-2.6h3.8v2.6h13.8v4.4h-13.8v2.2h-3.8v-2.2H95.4z"/>
<path d="M112,24.6v14.1c1.3-0.2,2.3-0.7,3-1.6s1.1-2,1.1-3.4c0-1.7-0.6-3.1-1.7-4.2l1.8-3.7c1.3,0.9,2.3,2.1,2.9,3.3
	c0.6,1.3,0.9,2.8,0.9,4.6c0,2.7-0.9,5-2.6,6.7c-1.8,1.7-3.9,2.6-6.5,2.6c-2.7,0-4.9-0.9-6.7-2.6c-1.8-1.7-2.6-3.9-2.6-6.5
	c0-2.8,0.9-5,2.6-6.7c1.8-1.7,4.1-2.6,7-2.6H112z M108.5,29c-1,0.3-1.8,0.9-2.4,1.7c-0.6,0.9-0.9,1.9-0.9,3c0,1.2,0.3,2.3,1,3.2
	c0.4,0.6,1.2,1.1,2.3,1.6V29z"/>
<path d="M95.1,21.1v-4.4h14l-7.3-6.5V4.6l8.4,7.6l9.2-8.4v5.5l-8.1,7.4h8.1V21L95.1,21.1L95.1,21.1z"/>
<path d="M1.8,56.7v5h4.3v-5h1.5v4.7c0,0.6-0.1,0.9-0.3,1.2C7,62.8,6.6,62.9,6,62.9H1.9c-0.6,0-1.1-0.1-1.3-0.3
	c-0.2-0.2-0.3-0.6-0.3-1.2v-4.7H1.8z"/>
<path d="M14,62.9v-6.2h1.5v5h4.9v1.2H14z"/>
<path d="M27.8,57.8v5.1h-1.5v-5.1h-3v-1.1h7.6v1.1H27.8z"/>
<path d="M36.4,62.9v-6.2h5.6c0.5,0,0.9,0.1,1.1,0.3c0.2,0.2,0.3,0.5,0.3,0.9v1.5c0,0.4-0.1,0.7-0.3,0.9c-0.2,0.2-0.6,0.3-1.1,0.3
	h-0.8l2.9,2.3h-2.2l-2.6-2.3h-1.4v2.3L36.4,62.9L36.4,62.9z M41.3,57.7h-3.5v1.7h3.5c0.2,0,0.4,0,0.5-0.1c0.1,0,0.1-0.2,0.1-0.4
	v-0.7c0-0.2,0-0.3-0.1-0.4C41.7,57.7,41.6,57.7,41.3,57.7z"/>
<path d="M48,62.9l3.7-6.2h1.5l3.7,6.2h-1.7l-0.8-1.4h-4.1l-0.8,1.4H48z M51,60.4h2.8l-1.5-2.6L51,60.4z"/>
<path d="M75.6,62.9v-6.2h6.6v1.1h-5.1v1.6h2.7v1.2h-2.7v2.3H75.6z"/>
<path d="M85.3,62.9l3.7-6.2h1.5l3.7,6.2h-1.7l-0.8-1.4h-4.1l-0.8,1.4H85.3z M88.2,60.4h2.8l-1.5-2.6L88.2,60.4z"/>
<path d="M105.1,57.8h-4.3v1.3h4.1c0.6,0,1.1,0.1,1.3,0.3s0.3,0.6,0.3,1.2v0.8c0,0.6-0.1,1-0.3,1.2s-0.6,0.3-1.3,0.3h-4
	c-0.6,0-1.1-0.1-1.3-0.3s-0.3-0.6-0.3-1.2v-0.2l1.4-0.2v0.7h4.6v-1.4h-4.1c-0.6,0-1.1-0.1-1.3-0.3c-0.2-0.2-0.3-0.6-0.3-1.2v-0.7
	c0-0.5,0.1-0.9,0.3-1.2c0.2-0.2,0.6-0.3,1.3-0.3h3.7c0.6,0,1.1,0.1,1.3,0.3c0.2,0.2,0.3,0.5,0.3,1v0.1l-1.3,0.3L105.1,57.8
	L105.1,57.8z"/>
<path d="M116.4,57.8v5.1h-1.5v-5.1h-3v-1.1h7.6v1.1H116.4z"/>
<path class="st0" d="M35.9,71.1l1.7-0.6c-0.6-1.3-1.8-2.5-2.6-3.1c-5.7-3.9-13,2.1-9.4,8.6c-1.6-3.5,0.7-7.9,4.1-8.6
	c1.8-0.3,3.7,0.4,5,1.7c0.1,0.1,0.3,0.3,0.4,0.5C35.3,70,35.7,70.7,35.9,71.1z"/>
<path class="st0" d="M30.4,73.6l8-2.7c-0.3,0.2-6.4,4.1-6.7,4.2c-0.6,0.4-0.9,0.6-1.4,0.6c-0.6,0-0.9-0.5-0.9-1
	C29.5,74,29.9,73.8,30.4,73.6z"/>
</svg>
